<?xml version="1.0" standalone="no"?>
<!DOCTYPE svg PUBLIC "-//W3C//DTD SVG 20010904//EN"
 "http://www.w3.org/TR/2001/REC-SVG-20010904/DTD/svg10.dtd">
<svg version="1.0" xmlns="http://www.w3.org/2000/svg"
 width="85.000000pt" height="85.000000pt" viewBox="0 0 85.000000 85.000000"
 preserveAspectRatio="xMidYMid meet">

<g transform="translate(0.000000,85.000000) scale(0.100000,-0.100000)"
fill="#000000" stroke="none">
<path d="M382 795 c-41 -34 -49 -75 -24 -125 l19 -40 -25 -16 c-13 -9 -54 -25
-91 -35 -36 -10 -72 -27 -78 -36 -8 -9 -13 -46 -13 -85 0 -57 3 -69 20 -78 35
-19 60 4 60 54 0 35 4 45 20 49 24 6 24 7 6 -62 -10 -36 -12 -61 -5 -78 6 -16
5 -40 -2 -68 -11 -43 -13 -45 -75 -65 -97 -33 -121 -85 -64 -141 25 -25 33
-28 50 -19 20 11 24 20 21 52 -2 15 22 27 127 63 7 3 27 28 44 56 l32 51 31
-34 c16 -18 60 -73 98 -121 66 -85 68 -87 110 -87 66 0 111 57 72 90 -8 7 -27
10 -43 7 -25 -5 -31 1 -84 89 -45 73 -58 103 -58 134 0 45 0 46 40 25 27 -14
33 -14 58 -1 39 20 102 92 102 116 0 12 -10 25 -25 32 -23 10 -29 8 -58 -20
-18 -18 -36 -32 -41 -32 -12 0 -76 54 -76 65 0 6 -9 27 -20 47 l-19 36 24 16
c13 9 29 32 34 52 28 102 -87 176 -167 109z m119 -24 c17 -18 29 -40 29 -56 0
-36 -41 -75 -80 -75 -60 0 -102 76 -67 121 35 45 79 49 118 10z m-40 -171 c11
-6 19 -21 19 -35 0 -14 5 -25 10 -25 6 0 10 -37 10 -90 0 -75 -2 -88 -15 -84
-19 8 -20 -14 -2 -35 7 -9 46 -69 86 -133 40 -65 76 -118 80 -118 5 0 14 7 21
15 16 19 30 19 30 0 0 -8 -11 -22 -25 -31 -39 -25 -60 -10 -156 112 -84 108
-86 109 -134 115 -36 4 -54 12 -71 33 -28 32 -28 34 -9 106 23 85 21 90 -22
83 -53 -8 -63 -19 -63 -69 0 -24 -5 -44 -10 -44 -7 0 -10 25 -8 67 l3 67 65
21 c36 11 79 28 95 37 35 20 68 22 96 8z m239 -113 c0 -7 -20 -33 -45 -57
l-46 -45 -37 20 c-30 16 -38 27 -40 54 l-3 33 34 -26 c43 -33 57 -33 92 4 31
32 45 38 45 17z m-340 -230 c0 -5 -8 -22 -17 -38 -13 -22 -34 -34 -95 -55 -84
-28 -96 -37 -77 -60 9 -11 9 -18 1 -26 -15 -15 -41 16 -42 48 0 28 12 37 87
64 58 21 64 26 73 60 10 37 11 38 40 27 17 -6 30 -15 30 -20z"/>
<path d="M467 503 c-4 -3 -7 -15 -7 -25 0 -26 24 -17 28 10 3 21 -8 29 -21 15z"/>
<path d="M447 433 c-11 -10 -8 -43 3 -43 15 0 24 30 13 41 -5 5 -12 6 -16 2z"/>
<path d="M97 403 c-4 -3 -2 -12 4 -20 9 -10 4 -13 -30 -13 -22 0 -41 -4 -41
-10 0 -5 16 -10 36 -10 31 0 36 -3 31 -20 -7 -28 14 -25 43 5 l23 25 -23 25
c-25 26 -32 29 -43 18z"/>
<path d="M710 385 l-23 -25 23 -25 c29 -30 50 -33 43 -5 -5 17 0 20 31 20 20
0 36 5 36 10 0 6 -19 10 -41 10 -34 0 -39 3 -30 13 10 13 6 27 -9 27 -4 0 -17
-11 -30 -25z"/>
</g>
</svg>
