<?xml version="1.0" standalone="no"?>
<!DOCTYPE svg PUBLIC "-//W3C//DTD SVG 20010904//EN"
 "http://www.w3.org/TR/2001/REC-SVG-20010904/DTD/svg10.dtd">
<svg version="1.0" xmlns="http://www.w3.org/2000/svg"
 width="85.000000pt" height="85.000000pt" viewBox="0 0 85.000000 85.000000"
 preserveAspectRatio="xMidYMid meet">

<g transform="translate(0.000000,85.000000) scale(0.100000,-0.100000)"
fill="#000000" stroke="none">
<path d="M422 838 c3 -7 20 -14 39 -16 113 -10 229 -79 292 -175 47 -72 67
-138 67 -222 0 -222 -173 -395 -395 -395 -175 0 -323 107 -378 274 -40 119
-10 278 69 364 l43 47 1 -57 c0 -45 3 -58 15 -58 12 0 15 14 15 68 0 40 -5 73
-12 80 -7 7 -40 12 -80 12 -54 0 -68 -3 -68 -15 0 -11 12 -15 52 -15 l52 0
-30 -32 c-96 -103 -129 -264 -84 -399 104 -307 478 -399 704 -173 192 192 157
513 -72 658 -80 50 -241 88 -230 54z"/>
<path d="M412 775 c2 -14 8 -26 13 -26 6 0 11 12 13 26 2 18 -1 25 -13 25 -12
0 -15 -7 -13 -25z"/>
<path d="M410 557 l0 -133 64 -63 c35 -35 66 -59 69 -54 3 5 -18 34 -48 63
l-55 54 0 133 c0 112 -2 133 -15 133 -13 0 -15 -21 -15 -133z"/>
<path d="M50 425 c0 -12 7 -15 25 -13 33 4 33 22 0 26 -18 2 -25 -1 -25 -13z"/>
<path d="M747 434 c-11 -12 3 -24 29 -24 15 0 24 6 24 15 0 15 -40 21 -53 9z"/>
<path d="M416 103 c-12 -13 -6 -53 9 -53 9 0 15 9 15 24 0 26 -12 40 -24 29z"/>
</g>
</svg>
