<?xml version="1.0" standalone="no"?>
<!DOCTYPE svg PUBLIC "-//W3C//DTD SVG 20010904//EN"
 "http://www.w3.org/TR/2001/REC-SVG-20010904/DTD/svg10.dtd">
<svg version="1.0" xmlns="http://www.w3.org/2000/svg"
 width="85.000000pt" height="85.000000pt" viewBox="0 0 85.000000 85.000000"
 preserveAspectRatio="xMidYMid meet">

<g transform="translate(0.000000,85.000000) scale(0.100000,-0.100000)"
fill="#000000" stroke="none">
<path d="M135 793 c4 -10 13 -46 20 -81 18 -84 31 -102 104 -141 34 -18 61
-35 61 -38 0 -3 -11 -18 -25 -35 -30 -36 -32 -65 -5 -93 l21 -22 -31 -13 c-61
-25 -60 -88 1 -109 30 -10 31 -12 16 -29 -11 -12 -16 -32 -14 -58 l2 -39 -70
-6 c-38 -4 -83 -12 -100 -19 -35 -13 -95 -68 -95 -87 0 -21 16 -15 28 12 16
36 86 67 162 73 90 7 104 15 96 60 -4 25 -1 41 11 54 21 24 11 44 -32 62 -46
19 -44 39 5 67 22 13 40 27 40 33 0 5 -11 22 -25 36 l-26 27 31 38 c16 21 30
41 30 44 -1 15 -18 29 -68 56 -66 36 -87 62 -96 117 -9 61 -26 108 -38 108 -6
0 -7 -8 -3 -17z"/>
<path d="M52 638 c-39 -24 -40 -36 -7 -44 27 -7 50 5 27 13 -10 4 -9 9 4 24
25 28 14 31 -24 7z"/>
<path d="M424 429 l-88 -112 30 -24 c120 -97 323 -253 331 -253 8 0 26 23 116
142 l29 38 -158 160 c-86 88 -161 160 -165 160 -4 0 -47 -50 -95 -111z m189
-7 c48 -48 87 -90 87 -92 0 -3 -72 -4 -160 -2 -88 2 -160 5 -160 8 0 9 131
174 139 174 3 0 46 -39 94 -88z m137 -138 c22 -19 29 -32 24 -46 -5 -17 -3
-19 15 -13 13 4 21 2 21 -5 0 -20 -114 -160 -123 -151 -6 6 6 30 27 57 52 67
44 78 -12 16 l-47 -52 -132 102 c-72 57 -132 106 -132 111 -1 4 73 7 163 7
163 0 165 0 196 -26z"/>
<path d="M550 260 c0 -5 5 -10 11 -10 5 0 7 5 4 10 -3 6 -8 10 -11 10 -2 0 -4
-4 -4 -10z"/>
<path d="M686 251 c-4 -5 -2 -12 3 -15 5 -4 12 -2 15 3 4 5 2 12 -3 15 -5 4
-12 2 -15 -3z"/>
<path d="M610 197 c0 -19 10 -27 26 -20 21 8 17 33 -6 33 -11 0 -20 -6 -20
-13z"/>
</g>
</svg>
